<svg width="80" height="79" viewBox="0 0 80 79" fill="none" xmlns="http://www.w3.org/2000/svg">
<g filter="url(#filter0_f_328_2)">
<ellipse cx="40" cy="39.5" rx="36" ry="35.5" fill="#0A7AB9"/>
</g>
<g filter="url(#filter1_b_328_2)">
<ellipse cx="40" cy="39.5" rx="36" ry="35.5" fill="#5EAEDA" style="mix-blend-mode:overlay"/>
<path d="M74 39.5C74 57.9753 58.8041 73 40 73C21.1959 73 6 57.9753 6 39.5C6 21.0247 21.1959 6 40 6C58.8041 6 74 21.0247 74 39.5Z" stroke="#0A7AB9" stroke-width="4"/>
</g>
<path d="M54 41C54.5523 41 55.0028 41.448 54.9732 41.9995C54.8717 43.8902 54.4826 45.7515 53.8201 47.5056C53.0412 49.5682 51.8995 51.4422 50.4602 53.0208C49.0208 54.5994 47.3121 55.8516 45.4316 56.706C43.551 57.5603 41.5355 58 39.5 58C37.4645 58 35.449 57.5603 33.5684 56.706C31.6879 55.8516 29.9792 54.5994 28.5398 53.0208C27.1005 51.4422 25.9588 49.5682 25.1799 47.5056C24.5174 45.7515 24.1283 43.8902 24.0268 41.9995C23.9972 41.448 24.4477 41 25 41L39.5 41H54Z" fill="#65C3CB"/>
<path fill-rule="evenodd" clip-rule="evenodd" d="M49.8979 53.9948C48.5835 55.184 47.0728 56.1403 45.4316 56.8201C43.5513 57.5991 41.5356 58 39.5 58C37.4644 58 35.4487 57.5991 33.5684 56.8201C32.2988 56.2942 31.1069 55.6028 30.0239 54.7661C30.3828 49.3095 34.7119 45 40 45C45.0361 45 49.2026 48.9089 49.8979 53.9948Z" fill="#D9D9D9"/>
<circle cx="29.5" cy="30.5" r="6.5" fill="#D9D9D9"/>
<circle cx="29.5" cy="30.5" r="6.5" fill="#D9D9D9"/>
<path d="M33.0002 30.5C33.0002 32.433 31.4332 34 29.5002 34C27.5672 34 26.0002 32.433 26.0002 30.5C26.0002 28.567 27.5672 27 29.5002 27C31.4332 27 33.0002 28.567 33.0002 30.5Z" fill="black"/>
<ellipse cx="29.5" cy="36.5" rx="6.5" ry="2.5" fill="#33A9CD"/>
<circle cx="49.5" cy="30.5" r="6.5" fill="#D9D9D9"/>
<path d="M53.0002 30.5C53.0002 32.433 51.4332 34 49.5002 34C47.5672 34 46.0002 32.433 46.0002 30.5C46.0002 28.567 47.5672 27 49.5002 27C51.4332 27 53.0002 28.567 53.0002 30.5Z" fill="black"/>
<ellipse cx="49.5" cy="36.5" rx="6.5" ry="2.5" fill="#33A9CD"/>
<defs>
<filter id="filter0_f_328_2" x="0" y="0" width="80" height="79" filterUnits="userSpaceOnUse" color-interpolation-filters="sRGB">
<feFlood flood-opacity="0" result="BackgroundImageFix"/>
<feBlend mode="normal" in="SourceGraphic" in2="BackgroundImageFix" result="shape"/>
<feGaussianBlur stdDeviation="2" result="effect1_foregroundBlur_328_2"/>
</filter>
<filter id="filter1_b_328_2" x="0" y="0" width="80" height="79" filterUnits="userSpaceOnUse" color-interpolation-filters="sRGB">
<feFlood flood-opacity="0" result="BackgroundImageFix"/>
<feGaussianBlur in="BackgroundImageFix" stdDeviation="2"/>
<feComposite in2="SourceAlpha" operator="in" result="effect1_backgroundBlur_328_2"/>
<feBlend mode="normal" in="SourceGraphic" in2="effect1_backgroundBlur_328_2" result="shape"/>
</filter>
</defs>
</svg>
